<?xml version="1.0" standalone="no"?>
<!DOCTYPE svg PUBLIC "-//W3C//DTD SVG 20010904//EN"
 "http://www.w3.org/TR/2001/REC-SVG-20010904/DTD/svg10.dtd">
<svg version="1.0" xmlns="http://www.w3.org/2000/svg"
 width="700.000000pt" height="700.000000pt" viewBox="0 0 700.000000 700.000000"
 preserveAspectRatio="xMidYMid meet">
<metadata>
Created by potrace 1.14, written by Peter Selinger 2001-2017
</metadata>
<g transform="translate(0.000000,700.000000) scale(0.100000,-0.100000)"
fill="#000000" stroke="none">
<path d="M3859 6673 c-8 -1 -108 -4 -224 -6 -115 -3 -221 -8 -235 -11 -14 -4
-36 -9 -50 -11 -14 -2 -36 -7 -50 -10 -14 -3 -30 -7 -37 -9 -7 -1 -15 -5 -19
-8 -3 -4 -12 -4 -20 -1 -8 3 -14 0 -14 -7 0 -7 -7 -10 -15 -7 -8 4 -17 2 -20
-3 -4 -6 -15 -10 -26 -10 -11 0 -17 -4 -14 -10 3 -6 -1 -7 -9 -4 -9 3 -16 2
-16 -3 0 -5 -6 -10 -14 -10 -20 0 -146 -65 -146 -75 0 -5 -4 -7 -10 -3 -5 3
-18 -3 -30 -15 -11 -11 -24 -20 -29 -20 -4 0 -20 -11 -35 -25 -14 -13 -26 -21
-26 -17 -1 4 -10 -4 -20 -17 -11 -13 -20 -20 -20 -16 0 5 -8 -1 -17 -12 -10
-11 -40 -39 -66 -61 -27 -23 -46 -42 -42 -42 3 0 -10 -16 -30 -35 -19 -20 -35
-40 -35 -46 0 -6 -4 -7 -10 -4 -5 3 -10 1 -10 -5 0 -12 -48 -80 -65 -92 -5 -4
-6 -8 -1 -8 4 0 -3 -15 -17 -34 -15 -18 -28 -40 -29 -47 -2 -7 -9 -20 -15 -27
-7 -7 -13 -22 -13 -33 0 -10 -4 -19 -9 -19 -5 0 -13 -10 -17 -22 -4 -13 -6
-23 -5 -23 1 0 -7 -20 -17 -44 -11 -24 -18 -51 -14 -59 3 -10 1 -13 -6 -8 -8
5 -12 -3 -12 -23 0 -17 -4 -31 -8 -31 -8 0 -9 -8 -15 -77 -1 -18 -5 -33 -8
-33 -3 0 -6 -6 -7 -12 0 -7 -3 -44 -6 -83 -3 -38 -6 -72 -7 -75 0 -3 -2 -16
-2 -30 -2 -23 -6 -25 -67 -30 -36 -3 -77 -2 -92 2 -16 4 -28 3 -28 -1 0 -3
-27 -5 -61 -3 -33 2 -66 -1 -72 -6 -9 -8 -11 -68 -9 -221 l3 -210 100 2 c102
2 127 -2 115 -21 -3 -6 -2 -13 3 -16 5 -3 5 -21 1 -41 -4 -19 -4 -37 1 -40 4
-3 5 -13 2 -22 -5 -12 -3 -14 8 -8 11 6 12 5 2 -5 -9 -9 -9 -19 -2 -33 8 -14
8 -18 0 -12 -8 4 -10 -1 -6 -17 12 -46 12 -108 1 -108 -7 0 -7 -3 1 -8 6 -4
10 -20 9 -35 -2 -15 0 -27 3 -27 3 0 6 -33 5 -73 0 -39 3 -82 8 -95 5 -16 5
-21 -3 -16 -7 4 -9 0 -5 -14 13 -40 14 -122 2 -115 -8 5 -8 3 0 -8 6 -8 12
-43 14 -79 3 -96 5 -114 13 -127 4 -6 3 -14 -2 -18 -6 -3 -8 -12 -5 -19 5 -14
-10 -29 -33 -32 -9 -2 -13 12 -14 39 0 23 -1 148 -2 277 l-2 235 -215 0 -215
0 -3 -270 c-1 -148 -6 -271 -11 -275 -13 -7 -306 -4 -320 4 -6 4 -11 14 -11
22 0 8 -5 14 -11 14 -5 0 -7 4 -4 10 3 5 -1 22 -9 38 -8 16 -12 32 -9 36 4 3
1 6 -6 6 -7 0 -9 5 -6 10 3 6 2 10 -3 10 -5 0 -9 6 -9 13 -1 18 -27 81 -35 88
-5 3 -9 17 -10 32 -1 15 -8 29 -16 32 -7 3 -11 9 -8 14 3 4 -3 26 -13 47 -10
22 -25 58 -31 81 -7 23 -17 40 -23 36 -5 -3 -6 3 -2 16 9 29 -12 35 -66 20
-24 -7 -53 -13 -64 -15 -38 -6 -50 -10 -60 -15 -5 -4 -28 -10 -50 -14 -22 -5
-42 -9 -45 -10 -3 -1 -32 -7 -65 -15 -33 -8 -63 -19 -67 -24 -5 -7 -8 -5 -8 4
-1 13 -2 13 -10 -1 -9 -16 7 -89 20 -89 4 0 7 -6 8 -12 1 -15 10 -53 12 -53 2
0 10 -36 12 -57 1 -10 5 -18 9 -18 7 0 19 -51 20 -82 0 -10 4 -20 8 -23 5 -2
7 -16 6 -30 -2 -14 0 -25 4 -25 5 0 7 -12 6 -27 l-1 -26 -164 0 c-180 0 -188
-2 -185 -58 1 -16 -1 -29 -4 -29 -4 0 -8 -10 -9 -22 -4 -38 -7 -52 -16 -67 -6
-10 -5 -12 2 -7 7 4 12 3 12 -3 0 -5 -4 -12 -9 -15 -5 -3 -8 -24 -7 -46 1 -22
-1 -46 -5 -52 -4 -7 -3 -20 2 -29 5 -10 5 -20 0 -23 -11 -7 -8 -177 3 -195 7
-10 5 -12 -4 -6 -10 6 -12 4 -6 -11 6 -16 17 -102 19 -151 0 -7 3 -13 7 -13 3
0 5 -16 5 -35 -1 -20 2 -38 7 -41 5 -3 6 -9 3 -14 -3 -5 -1 -11 4 -14 5 -3 7
-15 4 -25 -4 -18 -14 -19 -106 -18 l-102 2 1 -40 c0 -22 4 -67 9 -100 4 -33 8
-77 8 -97 0 -21 3 -38 6 -38 6 0 10 -31 14 -127 1 -18 4 -33 7 -33 3 0 5 -18
5 -40 0 -22 2 -40 5 -40 3 0 6 -17 7 -38 2 -44 10 -121 19 -177 4 -22 6 -52 6
-67 0 -16 5 -28 12 -28 6 0 4 -5 -4 -10 -10 -7 -11 -13 -4 -17 5 -5 10 -27 9
-51 0 -24 2 -45 5 -47 6 -3 11 -58 13 -122 1 -13 4 -23 7 -23 3 0 6 -22 6 -50
-1 -27 2 -50 7 -50 4 0 5 -5 1 -11 -3 -6 0 -15 7 -20 8 -5 9 -9 3 -9 -6 0 -10
-10 -8 -23 1 -12 3 -22 4 -22 4 0 9 -48 12 -103 1 -28 5 -52 8 -52 4 0 7 -15
7 -33 -1 -40 11 -129 19 -151 4 -10 1 -16 -7 -16 -10 0 -11 -2 -3 -8 7 -4 14
-30 17 -58 2 -29 8 -57 11 -63 4 -6 2 -11 -5 -11 -7 0 -8 -4 -2 -12 5 -7 10
-24 11 -38 5 -77 15 -141 25 -157 5 -8 3 -13 -3 -13 -7 0 -8 -6 -2 -17 4 -10
8 -33 7 -50 -1 -18 1 -33 4 -33 3 0 7 -21 9 -48 5 -93 6 -102 14 -102 4 0 3
-11 -2 -24 -6 -17 -4 -30 6 -44 11 -16 11 -21 1 -25 -6 -3 -7 -6 -2 -6 6 -1
10 -17 9 -36 -1 -19 2 -35 7 -35 5 0 4 -12 -1 -26 -6 -14 -6 -23 -2 -20 5 3
10 -15 10 -40 3 -57 5 -67 17 -76 6 -5 5 -8 -4 -8 -9 0 -10 -4 -4 -12 5 -7 9
-28 8 -46 0 -17 3 -32 7 -32 4 0 8 -5 8 -11 0 -5 -5 -7 -11 -3 -8 5 -8 1 0
-13 6 -11 7 -23 4 -27 -8 -8 -346 -7 2662 -7 1441 0 2647 3 2680 7 33 3 66 7
73 7 6 0 12 3 12 7 0 4 11 6 25 5 14 -2 25 1 25 5 0 5 16 12 35 16 19 3 35 9
35 13 0 4 10 8 22 8 13 1 28 10 35 19 7 10 13 15 13 11 0 -4 18 4 40 18 22 14
44 25 50 25 6 0 8 5 5 10 -3 6 -1 10 5 10 7 0 42 31 78 69 76 78 95 101 87
101 -3 0 3 10 14 22 11 11 18 25 15 30 -3 4 -1 8 5 8 9 0 21 25 21 43 -1 4 6
15 15 23 8 9 13 20 10 25 -4 5 -1 9 4 9 6 0 11 9 11 19 0 11 4 22 8 25 5 3 8
19 7 35 -1 17 2 28 7 25 6 -4 7 7 5 25 -3 17 -2 31 3 31 4 0 8 26 9 58 l1 57
-240 0 c-132 -1 -240 3 -240 7 0 4 3 7 8 7 17 -3 72 14 72 23 0 5 5 6 10 3 6
-3 13 1 16 9 3 9 9 14 13 12 3 -2 15 2 26 10 10 8 15 14 11 14 -5 0 3 9 17 20
14 11 29 29 32 40 4 12 11 17 18 14 7 -4 9 -4 5 0 -3 4 1 24 9 44 24 58 25 73
26 359 0 191 -3 276 -11 286 -7 8 -9 17 -5 20 3 4 1 7 -5 7 -7 0 -11 3 -11 8
4 21 -3 40 -24 64 -12 15 -30 37 -39 50 -10 12 -18 18 -18 14 0 -5 -9 2 -20
15 -10 13 -19 20 -20 16 0 -5 -7 -1 -16 8 -9 9 -23 14 -31 11 -7 -3 -16 1 -20
9 -3 10 -12 13 -24 10 -11 -4 -19 -2 -19 3 0 6 94 9 238 9 l237 -1 0 55 c1 59
-10 123 -26 153 -8 14 -8 16 3 10 10 -6 10 -5 2 7 -6 8 -17 31 -23 52 -7 20
-17 37 -23 37 -6 0 -9 3 -5 6 8 8 -17 57 -50 102 -13 17 -21 32 -17 32 4 0 -3
8 -14 19 -12 10 -22 23 -22 30 0 6 -3 11 -8 11 -4 0 -36 27 -71 60 -35 33 -66
58 -69 56 -2 -3 -16 6 -31 20 -14 13 -32 22 -39 19 -7 -2 -15 2 -18 10 -4 8
-10 12 -15 9 -5 -3 -9 0 -9 5 0 6 -9 11 -19 11 -11 0 -23 4 -26 10 -3 6 -17
10 -31 10 -13 0 -24 5 -24 11 0 6 -9 9 -20 6 -11 -3 -23 -1 -26 4 -3 5 -11 9
-17 8 -7 -1 -30 1 -51 6 -22 4 -128 8 -235 9 -183 1 -196 2 -199 20 -3 13 0
16 9 11 8 -6 10 -4 4 5 -4 6 -6 42 -5 79 1 36 3 83 3 103 0 21 4 38 10 38 5 0
5 6 -2 13 -8 10 -7 17 2 27 10 10 9 11 -3 5 -13 -8 -13 -7 -1 8 11 14 11 17 0
17 -9 0 -10 3 -4 8 6 4 11 45 10 94 0 49 4 88 9 88 5 0 2 8 -5 17 -8 9 -9 14
-3 10 8 -5 11 4 9 31 -1 20 2 43 7 50 7 8 7 12 0 12 -6 0 -9 12 -6 27 3 14 6
54 7 87 1 34 6 64 12 68 6 5 6 8 -2 8 -7 0 -10 6 -8 13 3 6 7 53 8 103 2 50 7
96 11 103 4 6 3 11 -1 11 -5 0 -8 12 -7 28 1 15 3 27 4 27 1 0 4 38 6 84 1 46
5 85 8 88 2 2 0 18 -4 34 -5 17 -5 27 0 24 5 -3 9 14 8 37 0 24 2 65 4 91 3
26 1 50 -4 53 -5 3 -5 11 0 17 5 7 10 30 10 52 5 130 8 161 15 173 5 6 4 12
-1 12 -12 0 -11 34 2 42 7 5 6 8 -3 8 -10 0 -11 3 -2 14 8 10 9 16 1 21 -6 4
-7 12 -1 23 5 10 8 32 7 50 -1 17 3 32 8 33 6 0 56 1 111 2 l100 2 1 213 c0
196 -1 214 -18 223 -10 5 -18 6 -18 2 0 -8 -280 -7 -288 2 -3 2 -6 35 -8 72
-6 110 -10 137 -23 161 -8 15 -8 22 -1 22 6 0 8 4 5 10 -3 5 -8 18 -10 27 -2
10 -8 32 -14 50 -5 17 -7 34 -3 37 3 3 0 6 -6 6 -7 0 -12 9 -12 20 0 11 -4 28
-9 38 -16 32 -30 67 -33 82 -2 8 -5 17 -8 20 -11 11 -41 70 -35 70 4 0 0 7 -7
15 -27 30 -38 45 -38 50 1 8 -33 59 -45 67 -6 5 -6 8 0 8 6 0 2 5 -7 11 -10 5
-18 16 -18 22 0 7 -9 19 -20 27 -11 8 -20 20 -20 28 0 7 -4 10 -10 7 -5 -3
-10 0 -10 8 0 7 -16 26 -35 41 -19 16 -32 33 -28 40 3 6 3 8 -2 4 -4 -4 -28
12 -52 35 -25 23 -49 41 -54 40 -5 -2 -9 5 -9 14 0 9 -3 14 -6 10 -3 -3 -18 5
-32 19 -15 13 -32 24 -39 24 -7 0 -13 5 -13 10 0 6 -6 10 -14 10 -7 0 -19 7
-26 15 -7 8 -16 13 -20 10 -5 -3 -10 -1 -12 4 -4 12 -123 71 -143 71 -8 0 -15
4 -15 8 0 5 -7 9 -15 10 -8 1 -22 3 -30 4 -8 1 -15 5 -15 9 0 3 -10 9 -22 12
-13 2 -32 8 -42 12 -15 7 -17 5 -11 -6 6 -10 3 -9 -11 2 -10 9 -27 15 -36 14
-10 -2 -18 0 -18 5 0 5 -11 7 -25 5 -14 -1 -25 2 -25 6 0 5 -14 7 -30 5 -17
-2 -33 0 -35 4 -6 10 -25 8 -44 -4 -10 -6 -12 -5 -7 2 5 9 -11 12 -56 13 -35
0 -151 1 -259 2 -107 1 -202 1 -210 0z"/>
</g>
</svg>
